<svg width="166" height="105" viewBox="0 0 166 105" fill="none" xmlns="http://www.w3.org/2000/svg">
<path fill-rule="evenodd" clip-rule="evenodd" d="M0 0H166V105H0V0ZM7.35959 5.6106H158.64V100.191H7.35959V5.6106ZM122 66.5H45V69.125H122V66.5ZM45 61.25H122V63.875H45V61.25ZM122 56H45V58.625H122V56ZM45 50.75H122V53.375H45V50.75ZM126 29.75C132.627 29.75 138 25.049 138 19.25C138 13.451 132.627 8.75 126 8.75C119.373 8.75 114 13.451 114 19.25C114 25.049 119.373 29.75 126 29.75ZM134.488 41.635L127.542 31.1083C130.866 30.8272 133.91 29.2895 135.85 26.9113L142.796 37.438L142.701 37.486L135.917 35.4065L134.583 41.5871L134.488 41.635ZM116.488 26.9113L109.542 37.438L109.637 37.4859L116.421 35.4065L117.755 41.5871L117.85 41.635L124.796 31.1083C121.472 30.8273 118.428 29.2895 116.488 26.9113Z" fill="#181818"/>
</svg>
