<svg width="120" height="99" viewBox="0 0 120 99" fill="none" xmlns="http://www.w3.org/2000/svg">
<rect width="120" height="97.9289" fill="#181818"/>
<circle cx="36.8522" cy="29.7882" r="4.74403" fill="white"/>
<circle cx="83.1478" cy="29.7882" r="4.74403" fill="white"/>
<path d="M55.3848 29.7885C55.3848 40.0237 47.0875 48.3211 36.8522 48.3211C26.617 48.3211 18.3196 40.0237 18.3196 29.7885C18.3196 19.5532 26.617 11.2559 36.8522 11.2559C47.0875 11.2559 55.3848 19.5532 55.3848 29.7885ZM22.8914 29.7885C22.8914 37.4988 29.1419 43.7493 36.8522 43.7493C44.5626 43.7493 50.8131 37.4988 50.8131 29.7885C50.8131 22.0781 44.5626 15.8276 36.8522 15.8276C29.1419 15.8276 22.8914 22.0781 22.8914 29.7885Z" fill="white"/>
<path d="M101.68 29.7885C101.68 40.0237 93.383 48.3211 83.1478 48.3211C72.9125 48.3211 64.6152 40.0237 64.6152 29.7885C64.6152 19.5532 72.9125 11.2559 83.1478 11.2559C93.383 11.2559 101.68 19.5532 101.68 29.7885ZM69.1869 29.7885C69.1869 37.4988 75.4374 43.7493 83.1478 43.7493C90.8582 43.7493 97.1087 37.4988 97.1087 29.7885C97.1087 22.0781 90.8582 15.8276 83.1478 15.8276C75.4374 15.8276 69.1869 22.0781 69.1869 29.7885Z" fill="white"/>
<path d="M69.3444 33.5409C69.3444 30.7115 68.3685 27.998 66.6314 25.9973C64.8943 23.9965 62.5382 22.8726 60.0816 22.8726C57.6249 22.8726 55.2689 23.9965 53.5318 25.9972C51.7947 27.998 50.8188 30.7115 50.8188 33.5409L53.0143 33.5409C53.0143 31.3821 53.7589 29.3118 55.0842 27.7853C56.4096 26.2588 58.2072 25.4012 60.0816 25.4012C61.956 25.4012 63.7536 26.2588 65.079 27.7853C66.4043 29.3118 67.1489 31.3821 67.1489 33.5409H69.3444Z" fill="white"/>
<path fill-rule="evenodd" clip-rule="evenodd" d="M63.1219 98.2668H56.9968H56.389V67.8096H50.6493V98.2668H43.9164V67.8096H38.1766V98.2668H31.4437V67.8096H25.704V98.2668H18.9711V67.8096H18.8522V61.0767H56.8779H63.0732H101.099V61.1011H101.148V98.2668H94.4148V67.8096H88.675V98.2668H81.9421V67.8096H76.2024V98.2668H69.4695V67.8096H63.7297V98.2668H63.1219Z" fill="white"/>
</svg>
