<svg width="161" height="120" viewBox="0 0 161 120" fill="none" xmlns="http://www.w3.org/2000/svg">
<path fill-rule="evenodd" clip-rule="evenodd" d="M119.221 120C133.878 104.578 160.443 67.328 160.443 43.3735C160.443 19.419 141.987 0 119.221 0C96.4554 0 78 19.419 78 43.3735C78 67.328 104.107 104.096 119.221 120ZM118.763 59.542C131.158 59.542 141.206 49.494 141.206 37.0992C141.206 24.7044 131.158 14.6565 118.763 14.6565C106.369 14.6565 96.3206 24.7044 96.3206 37.0992C96.3206 49.494 106.369 59.542 118.763 59.542Z" fill="#2D7EDD"/>
<rect x="75" y="115" width="27" height="5" fill="#2D7EDD"/>
<rect x="39" y="115" width="27" height="5" fill="#2D7EDD"/>
<rect y="115" width="27" height="5" fill="#2D7EDD"/>
</svg>
